<svg xmlns="http://www.w3.org/2000/svg" viewBox="0 0 191.5 149.6" width="191.5" height="146.9"><path fill="#00374b" d="M30.2 141.2c-.7.6-1.4 1.2-2.1 1.7-.7.5-1.5.9-2.3 1.1-.9.3-1.8.5-2.7.7-1.1.1-2.2.2-3.3.2-1.9 0-3.8-.4-5.6-1.1-1.7-.7-3.2-1.8-4.5-3.1-1.3-1.5-2.3-3.2-3-5.1-.8-2.2-1.1-4.5-1.1-6.8s.3-4.6 1.1-6.7c.6-1.9 1.6-3.6 2.9-5.1 1.3-1.4 2.8-2.5 4.5-3.2 1.8-.7 3.8-1.1 5.8-1.1 1.5 0 3 .2 4.4.6 1 .3 2 .7 3 1.2.7.4 1.3.8 1.9 1.2.3.3.8.5 1.2.6.3 0 .5-.1.7-.2.2-.1.3-.3.4-.5l1.8-2.5c-1.7-1.6-3.7-2.9-5.9-3.8-2.4-1-5.1-1.5-7.7-1.4-2.8 0-5.5.5-8.1 1.5-2.4 1-4.5 2.4-6.3 4.3-1.8 1.9-3.2 4.2-4.1 6.6-1 2.7-1.5 5.6-1.5 8.5 0 2.9.4 5.7 1.4 8.5.9 2.4 2.2 4.7 3.9 6.6 1.7 1.8 3.8 3.3 6.1 4.3 2.5 1 5.2 1.6 8 1.5 3 .1 5.9-.5 8.6-1.6 2.3-1 4.4-2.6 6.1-4.5l-2.2-2.4c-.2-.2-.5-.4-.8-.4 0 0-.3.1-.6.4zm32.9-32.9v18.2H42.8v-18.2h-5.1v40.8h5.1v-18.6h20.3v18.6h5.1v-40.8h-5.1zM82.3 134l6-16.6c.5-1.3.8-2.5 1.2-3.8l.6 2.1c.2.7.4 1.2.6 1.7l6 16.6H82.3zm9.8-25.7h-5.2l-15.4 40.8h4c.4 0 .8-.1 1.1-.4.3-.2.5-.6.6-.9l3.6-9.9H98l3.6 9.9c.1.4.4.7.6.9.3.3.7.4 1.1.4h4l-15.2-40.8zm24.3 19.8v-15.4h5.9c3.1 0 5.5.6 7 1.8 1.6 1.4 2.5 3.4 2.4 5.5 0 1.1-.2 2.2-.6 3.3-.4 1-1 1.9-1.8 2.6-.9.7-1.9 1.3-3 1.6-1.3.4-2.7.6-4.2.6h-5.7zm12.5 4.9c-.5-.7-1.1-1.3-1.8-1.7 1.5-.3 2.9-.9 4.1-1.6 1.2-.7 2.2-1.5 3.1-2.5.8-1 1.5-2.1 1.9-3.4.5-1.3.7-2.7.7-4.1 0-1.6-.3-3.2-.9-4.7-.6-1.4-1.5-2.6-2.7-3.6-1.4-1.1-2.9-1.8-4.6-2.3-2.1-.6-4.3-.8-6.6-.8H111v40.8h5.4v-17h4.1c.6 0 1.2.1 1.7.3.4.2.8.6 1 1l10.4 14.6c.4.8 1.3 1.2 2.2 1.2h4.8L128.9 133zm21.5-24.7h-5.5v40.8h5.5v-40.8zm36.3 0v30.2c0 .4.1.9.1 1.4l-23.6-30.7c-.1-.2-.3-.3-.4-.5-.1-.1-.3-.2-.4-.3-.1-.1-.3-.1-.5-.1h-3.5v40.8h4.9V120v-1.3c0-.5-.1-.9-.1-1.4l23.6 30.8c.2.3.5.6.9.8.3.2.7.2 1.1.2h2.8v-40.8h-4.9z"></path><path fill="#00374b" d="M131.5 52.2c-3.1.4-6 .7-8.8 1.1.3 1.2.6 2.4.9 3.7 3.2-.5 6.4-1 9.8-1.6 3.1-.6 0-3.4-1.9-3.2zm-3.1-19.7c-4.6.5-8.5 1-12.9 1.7.6 1.2 1.2 2.4 1.7 3.6 4.2-.7 8.5-1.4 13.1-2.2 3.1-.5 0-3.3-1.9-3.1zm-13.2-15.1c-3.4.4-6.4.7-9.5 1.2.8 1.1 1.7 2.2 2.5 3.4 2.8-.5 5.7-.9 8.8-1.5 3.2-.5.1-3.3-1.8-3.1zm28 23.1C139.6 16.9 112.9.8 93 1.2c3.3 1.3 6.4 3.1 9.1 5.3 22.7 3.8 38.1 25.2 34.4 48-.8 5.1-2.7 10.1-5.3 14.6 0 1.4-.1 2.9-.2 4.2-.2 2.2-.8 4.5-1.7 6.5 10.1-10.1 16.1-24.5 13.9-39.3zM86.9 3.2l.2-.2c-.2 0-.3.1-.4.1.1.1.1.1.2.1zM47.9 49c.2 25 21 45 45.4 46.3h1.3c3.5-.5 5.5-4.6 6-10.8-1.4 3.2-3 5.2-5.2 5.6-5.3.8-12.7-7.5-19.1-20.6 4.8-2.2 9.8-4.1 14.8-5.6.7 1.4 1.4 2.8 2.2 4.1.9 1.9 1.9 3.7 3.1 5.3 4 6.5 8 11.8 11.5 14.7.5-1.8.8-3.5 1-5.3-3.3-3-7.2-8.4-11-14.8-.2-.3-.4-.7-.6-1.1-.8-1.3-1.6-2.7-2.3-4.1 3.8-1.1 7.8-2 11.8-2.8-.3-1.2-.6-2.3-1-3.6-4.3.9-8.5 1.9-12.6 3.1-2.6-4.9-5.2-9.9-7.2-14.8 4.7-1.3 9.3-2.3 13.8-3.3-.6-1.2-1.2-2.5-1.9-3.6-4.2 1-8.9 2.1-13.4 3.3-1.8-4.7-3.3-8.9-4.5-12.6 3-.8 6.4-1.7 10.1-2.5-.9-1.1-1.8-2.2-2.7-3.1-2.5.6-5.2 1.4-8.5 2.2-.3-1-.6-2-.8-2.9 0 0-3.4-3.8-4.1-2 .5 2 1 4 1.6 5.8-2.1.6-4.4 1.2-6.9 1.9-5 1.6-8.6 3.4-10.9 5.4 2.1-5.1 5.1-9.8 9-13.7 2.5-2.6 5.3-4.9 8.4-6.8-1.6-.9-3.3-1.8-5-2.5C57 18.5 47.8 32.8 47.9 49zm27.9 16.8c-.3.2-.6.3-1 .5-1.5-3.3-3-6.8-4.3-10.6-.2-.8-1.1-3.2-1.9-5.8 1.4-.6 3-1.2 4.7-1.8 3.2-.9 6.3-1.8 9.3-2.7 2 5 4.3 10.1 6.8 15.1-4.6 1.5-9.2 3.3-13.6 5.3zm-3 5.5c2.1 4.4 4.5 8.6 7.2 12.6l3.5 4.5c-6.2-2-11.8-5.5-16.4-10v-.1c-.9-2 1.3-4.4 5.7-7zM56.3 60.2c.1-3.1 2.9-5.9 8.9-8.8.6 1.8 1.1 3.4 1.6 4.7 1.4 4.2 2.9 8.2 4.6 12-4.5 2.7-6.4 5.2-6.9 7.4-3.9-4.5-6.6-9.7-8.2-15.3zm20.2-31c1.3 3.8 2.8 7.8 4.6 12.6-5.3 1.5-10.2 3-13.8 4.3-.4-1.4-.8-2.5-.9-3 0 0-3.6-4.2-4.2-2.5-.2.6.6 3.6 1.7 7-4.7 2.1-7.4 4.1-8.9 6.5-.2-1.7-.4-3.4-.4-5.1 0-2.9.3-5.8.8-8.6 1.6-4.2 8-7.5 21.1-11.2z"></path><path fill="#aad278" d="M66.5 5.4s25.8.9 41.9 39.3c11.2 26.8 7.4 46.1-1.1 52.8 0 0 21.8-6.1 23.7-24.2C133.8 44.9 109.3 1.5 87.6 0h-3.2C72 .6 66.5 5.4 66.5 5.4z"></path></svg>
