<svg xmlns="http://www.w3.org/2000/svg" viewBox="0 0 200 156.16">
  <!--
    This file is an inverted-colour variant of the official CharIN logo.
    The lighter green found in the original (.cls‑3 = #aad278) is preserved.
    The darker base colour (.cls‑2 = #00374b) has been inverted to its
    complementary colour (#ffc8b4).  This produces a high‑contrast
    rendition suitable for dark‑mode interfaces while respecting the
    existing brand design.  All structural path definitions remain
    unchanged from the source SVG.
  -->
  <defs>
    <style>
      .cls-1 { fill: none; }
      /*
        Inverted dark hue: original #00374b -> inverted #ffc8b4.
        Only the dark elements (text and globe outlines) change.
      */
      .cls-2 { fill: #ffc8b4; }
      /*
        Original light green retained for leaves and accent areas.
      */
      .cls-3 { fill: #aad278; }
    </style>
  </defs>
  <g id="Ebene_2" data-name="Ebene 2">
    <g id="CharIN-Logo">
      <g>
        <rect class="cls-1" width="200" height="156.16"/>
        <g id="CharIN">
          <g id="Typo">
            <path class="cls-2" d="M195.01733,113.70183v29.73912q0,.64452.04444,1.36313.04287.71754.10266,1.47955l-24.28978-31.61555a4.602,4.602,0,0,0-.44026-.4826,1.79105,1.79105,0,0,0-.40957-.29315,1.64607,1.64607,0,0,0-.46885-.14711,4.09236,4.09236,0,0,0-.64452-.04339h-2.93052V155.688h4.98157v-29.9148q0-.61437-.02963-1.31868-.02859-.70326-.08785-1.4351l24.28977,31.64412a2.86165,2.86165,0,0,0,.89323.79057,2.43686,2.43686,0,0,0,1.12819.23389h2.84267V113.70183Z"/>
            <polygon class="cls-2" points="156.903 113.702 154.137 113.702 151.219 113.702 151.219 155.689 156.903 155.689 156.903 113.702"/>
            <path class="cls-2" d="M132.51054,139.01712a5.55653,5.55653,0,0,0-1.83727-1.78752,15.56536,15.56536,0,0,0,4.264-1.64042,12.00034,12.00034,0,0,0,3.18664-2.62254,11.04314,11.04314,0,0,0,1.996-3.47239,12.30425,12.30425,0,0,0,.689-4.1603,12.52227,12.52227,0,0,0-.89-4.81964,9.30934,9.30934,0,0,0-2.74214-3.67771,12.79537,12.79537,0,0,0-4.69477-2.32938,24.95455,24.95455,0,0,0-6.74791-.80539h-11.629V155.688h5.54144V138.16728h4.22168a3.74745,3.74745,0,0,1,1.73671.308,3.18439,3.18439,0,0,1,1.04776,1.0107l10.68174,15.00079a2.42164,2.42164,0,0,0,2.23943,1.20121h4.93922Zm-12.864-4.98157V118.18492H125.734q4.82441,0,7.2358,1.90394a6.76973,6.76973,0,0,1,2.41195,5.65466,8.71193,8.71193,0,0,1-.63183,3.36974,7.03886,7.03886,0,0,1-1.88066,2.62254,8.67591,8.67591,0,0,1-3.1009,1.69968,13.83772,13.83772,0,0,1-4.264.60007Z"/>
            <path class="cls-2" d="M94.67166,113.70183H89.27418L73.49233,155.688H77.623a1.68881,1.68881,0,0,0,1.15676-.40957,2.05835,2.05835,0,0,0,.63394-.93769l3.6904-10.13775h17.71012l3.6904,10.13775a2.34027,2.34027,0,0,0,.66041.96732,1.70642,1.70642,0,0,0,1.15676.37994h4.13172Zm-10.0806,26.399,6.19759-17.0529a33.4307,33.4307,0,0,0,1.18428-3.955q.27462,1.143.57784,2.1537.30322,1.01124.5789,1.77271l6.19654,17.08147Z"/>
            <polygon class="cls-2" points="64.895 113.702 64.895 132.425 44.059 132.425 44.059 113.702 38.828 113.702 38.828 155.688 44.059 155.688 44.059 136.585 64.895 136.585 64.895 155.688 70.124 155.688 70.124 113.702 64.895 113.702"/>
            <path class="cls-2" d="M31.05892,147.4552a17.98267,17.98267,0,0,1-2.18334,1.7145,11.69969,11.69969,0,0,1-2.37277,1.18639,13.82108,13.82108,0,0,1-2.78342.68791,23.55064,23.55064,0,0,1-3.38454.22014,14.62852,14.62852,0,0,1-5.72769-1.11337,13.00033,13.00033,0,0,1-4.60057-3.23744A15.4733,15.4733,0,0,1,6.93,141.71269a20.274,20.274,0,0,1-1.12713-7.003A20.8062,20.8062,0,0,1,6.88663,127.766a15.05982,15.05982,0,0,1,3.03212-5.21546,12.9912,12.9912,0,0,1,4.644-3.26707,15.27264,15.27264,0,0,1,5.94782-1.12818A14.82029,14.82029,0,0,1,28.1284,120.001a19.69346,19.69346,0,0,1,1.99284,1.27423,2.32467,2.32467,0,0,0,1.289.5715,1.29434,1.29434,0,0,0,.74719-.1905,1.52323,1.52323,0,0,0,.454-.4826l1.87537-2.60773a19.92687,19.92687,0,0,0-6.03567-3.89784,20.34829,20.34829,0,0,0-7.911-1.4351,21.60225,21.60225,0,0,0-8.35023,1.5674,18.81088,18.81088,0,0,0-6.4897,4.41006,19.893,19.893,0,0,0-4.20475,6.79767,24.4429,24.4429,0,0,0-1.49436,8.7016,25.34187,25.34187,0,0,0,1.4351,8.7016,19.873,19.873,0,0,0,4.04388,6.78391,18.03529,18.03529,0,0,0,6.2992,4.39419,20.78118,20.78118,0,0,0,8.20418,1.56739,21.40735,21.40735,0,0,0,8.8921-1.67005,17.95927,17.95927,0,0,0,6.2558-4.65877L32.875,147.397a1.08381,1.08381,0,0,0-.82021-.381A1.49118,1.49118,0,0,0,31.05892,147.4552Z"/>
          </g>
          <g id="Globe">
            <g>
              <g>
                <path class="cls-2" d="M120.34288,18.20859c-3.52525.41426-6.65267.7726-9.90069,1.216.89006,1.143,1.75683,2.33469,2.60985,3.55388l9.23182-1.52187C125.59962,20.90841,122.322,17.976,120.34288,18.20859Z"/>
                <path class="cls-2" d="M134.14458,33.98727c-4.80706.56408-8.88363,1.03187-13.52864,1.74519.62018,1.2446,1.21073,2.50931,1.78433,3.78142,4.42912-.762,8.82014-1.4732,13.68529-2.27754C139.40131,36.68814,136.12361,33.75505,134.14458,33.98727Z"/>
                <path class="cls-2" d="M137.37356,54.49773c-3.28716.3865-6.22722.725-9.24241,1.12819q.5,1.91293.90592,3.81528c3.30412-.55245,6.658-1.09642,10.27641-1.69438C142.63029,57.1986,139.35265,54.265,137.37356,54.49773Z"/>
              </g>
              <path class="cls-2" d="M149.58152,42.25071C145.261,15.124,117.94692.81491,97.13377,1.26787l2.02562,5.24559,7.47819.30431c18.93674,3.68617,32.88661,15.98609,36.015,36.47435a43.56828,43.56828,0,0,1-5.65572,28.866l-3.35426,4.0603,1.38153,7.1887c9.10909-9.1209,15.05072-21.49983,15.05072-34.63353A41.41333,41.41333,0,0,0,149.58152,42.25071Z"/>
              <path class="cls-2" d="M79.99186,30.492c1.34408,4.00577,2.91676,8.11952,4.81965,13.14976C79.2923,45.15626,74.17739,46.72788,70.44359,48.181c-.46566-1.45414-.83714-2.63-.97789-3.11254,0,0-3.72957-4.38361-4.43124-2.61938-.25294.63394.62653,3.74121,1.74731,7.26334-4.94241,2.23413-7.75228,4.30951-9.30274,6.76274a43.46414,43.46414,0,0,1-.39582-5.30754,44.06257,44.06257,0,0,1,.871-8.98417C59.69518,37.50346,66.27377,34.393,79.99186,30.492Zm-21.173,32.39552c.06456-3.23213,3.00672-6.20817,9.2604-9.198.60643,1.82668,1.19062,3.56553,1.632,4.93395,1.44568,4.39525,3.07022,8.59576,4.808,12.5264-4.72228,2.81517-7.56495,4.72334-7.385,7.54379A42.79968,42.79968,0,0,1,58.81888,62.88755ZM76.05381,74.489a96.57064,96.57064,0,0,0,7.53426,13.20057l3.66712,4.69265c-6.5225-2.13889-12.92117-7.0051-16.70047-10.088-.20532-.16827-.62971-.45084-.71967-.78C69.21805,79.25041,71.33471,77.10412,76.05381,74.489Zm3.11256-5.75732c-.34929.16079-.66993.31962-1.00119.47943-1.57586-3.448-2.93052-6.71724-4.48944-11.0564-.25823-.781-1.09961-3.36442-1.9685-6.05048,1.49754-.60536,3.1242-1.21284,4.90114-1.82456,3.51683-1.19592,6.52355-1.90712,9.724-2.78658,2.11559,5.23027,4.54446,10.58859,7.13951,15.749A125.696,125.696,0,0,0,79.16637,68.73166ZM50.076,51.20357c.18538,26.0921,21.92334,47.05131,47.39844,48.32025a7.98223,7.98223,0,0,0,1.41287-.01481c3.611-.54928,5.70547-4.7498,6.278-11.28077-1.44886,3.34857-3.10938,5.44936-5.44829,5.805-5.58482.8509-13.23339-7.874-19.96437-21.48731a114.621,114.621,0,0,1,15.50349-5.86421c.75672,1.43722,3.45652,6.44418,5.6589,10.09225,2.00978,3.32951,8.25076,12.09779,11.88083,15.13626a39.31513,39.31513,0,0,0,1.02765-5.57424c-3.49143-3.11149-7.54908-8.73123-11.5263-15.45587-.21059-.36618-2.25318-3.91264-3.067-5.36573,3.93382-1.10279,8.11-2.08069,12.35391-2.9644-.32385-1.22554-.654-2.45532-1.04457-3.72109-4.47569.92709-8.90057,1.9939-13.20481,3.24168-2.74849-5.07683-5.37526-10.37377-7.51839-15.50034,4.953-1.31444,9.74512-2.45321,14.44623-3.501q-.95884-1.95738-1.94521-3.77824c-4.40689.998-9.28475,2.17275-14.04936,3.42476-1.85738-4.93288-3.44487-9.27521-4.74238-13.2048,3.17394-.8509,6.7003-1.73566,10.54733-2.66065-.93873-1.15887-1.88065-2.26165-2.82256-3.284-2.60139.66039-5.48005,1.4097-8.86565,2.323-.309-1.04033-.62759-2.0902-.87841-3.06281,0,0-3.54648-3.96133-4.32011-2.068.5027,2.13147,1.05092,4.13066,1.64359,6.09916-2.20028.60431-5.335,1.6457-8.03486,2.54635-5.63456,2.04681-8.1174,3.03423-10.54416,5.05671a43.65553,43.65553,0,0,1,9.4128-14.29066,42.386,42.386,0,0,1,8.81061-7.058,45.55443,45.55443,0,0,0-5.21757-2.6363C59.5777,19.28323,49.95546,34.23745,50.076,51.20357Z"/>
            </g>
            <path class="cls-3" d="M69.46581,5.684s26.9176.88583,43.7853,41.09714c11.72843,27.96112,7.69724,48.10964-1.17687,55.12321,0,0,22.79753-6.39127,24.70464-25.31847,2.993-29.70208-22.57422-75.00926-45.25427-76.57559Q91.07.00315,90.62537.0032q-1.24,0-2.40169.05152C75.19244.6241,69.46581,5.684,69.46581,5.684Z"/>
          </g>
        </g>
      </g>
    </g>
  </g>
</svg>